<?xml version="1.0" encoding="UTF-8" standalone="no"?>
<svg
   xmlns:dc="http://purl.org/dc/elements/1.1/"
   xmlns:cc="http://creativecommons.org/ns#"
   xmlns:rdf="http://www.w3.org/1999/02/22-rdf-syntax-ns#"
   xmlns:svg="http://www.w3.org/2000/svg"
   xmlns="http://www.w3.org/2000/svg"
   xmlns:sodipodi="http://sodipodi.sourceforge.net/DTD/sodipodi-0.dtd"
   xmlns:inkscape="http://www.inkscape.org/namespaces/inkscape"
   viewBox="0 0 100 125"
   version="1.1"
   x="0px"
   y="0px"
   id="svg18"
   sodipodi:docname="rede.svg"
   inkscape:version="1.0.1 (3bc2e813f5, 2020-09-07)">
  <metadata
     id="metadata24">
    <rdf:RDF>
      <cc:Work
         rdf:about="">
        <dc:format>image/svg+xml</dc:format>
        <dc:type
           rdf:resource="http://purl.org/dc/dcmitype/StillImage" />
      </cc:Work>
    </rdf:RDF>
  </metadata>
  <defs
     id="defs22" />
  <sodipodi:namedview
     pagecolor="#ffffff"
     bordercolor="#666666"
     borderopacity="1"
     objecttolerance="10"
     gridtolerance="10"
     guidetolerance="10"
     inkscape:pageopacity="0"
     inkscape:pageshadow="2"
     inkscape:window-width="1920"
     inkscape:window-height="1015"
     id="namedview20"
     showgrid="false"
     inkscape:zoom="5.176"
     inkscape:cx="50"
     inkscape:cy="62.5"
     inkscape:window-x="0"
     inkscape:window-y="0"
     inkscape:window-maximized="1"
     inkscape:current-layer="svg18" />
  <title
     id="title2">Artboard Copy 2</title>
  <desc
     id="desc4">Created with Sketch.</desc>
  <g
     stroke="none"
     stroke-width="1"
     fill="none"
     fill-rule="evenodd"
     id="g12">
    <g
       fill="#000000"
       id="g10">
      <path
         d="m 96.820644,27.328671 c 0,0 -5.268697,4.884692 -5.536956,5.258742 -0.748462,1.043622 -2.271425,3.723958 -4.614131,7.230769 -3.182364,4.763702 -5.546282,8.97078 -9.228259,13.475524 C 68.99758,63.624239 63.467853,66.611202 60.215212,68.741259 50.679344,74.986014 34.991301,73.013986 29.454345,69.727273 23.917389,66.440559 18.380433,59.538461 18.380433,59.538461 c 0,0 3.998913,4.272728 14.765216,0.328672 10.766304,-3.944056 15.225241,-5.244983 22.455433,-8.425972 5.076161,-2.233304 20.609781,-9.979622 26.761954,-13.923679 3.697261,-2.370252 6.924191,-4.786601 7.690217,-5.258741 0.351453,-0.216618 3.076087,-4.93007 3.076087,-4.93007 z"
         id="path6"
         style="fill:#ffffff;fill-opacity:1" />
      <path
         d="m 3,27 h 3.9989127 c 0,0 0.922826,3.944056 1.2304346,4.601399 1.3312677,2.844845 10.9352907,10.864082 19.0717377,14.790209 9.535868,4.601399 25.839128,4.272728 25.839128,4.272728 0,0 -16.918477,6.244755 -22.455433,8.216783 -5.536956,1.972028 -9.22826,0.657342 -9.22826,0.657342 0,0 -4.290504,-0.951786 -6.459782,-5.587412 C 11.920651,47.377622 13.151086,46.391608 11.305434,41.132867 9.9104901,37.15831 7.7185083,33.213858 6.691304,31.601399 6.3594131,31.080411 3,27 3,27 Z"
         id="path8"
         style="fill:#ffffff;fill-opacity:1" />
    </g>
  </g>
</svg>
